<svg id="Layer_1" data-name="Layer 1" xmlns="http://www.w3.org/2000/svg" viewBox="0 0 1177.6 600.69"><defs><style>.cls-1{fill:#00bad9;}.cls-2{fill:#fff;}.cls-3{fill:#8bc63f;}.cls-4{fill:#a8cf38;}</style></defs><rect class="cls-1" x="52.05" width="1100" height="576"/><path class="cls-2" d="M436.13,522.75c-3.29-4.17-4-10.1-8.64-13.53a.53.53,0,0,1-.19-.33c-.64-4.92-2.35-10-1.52-14.7s.38-8.28-2.89-11.6c-1.08-1.09-2-2.28-3.05-3.42-2.69-3-4.31-6.48-3.82-10.58.73-6.22-4-7.77-6-13.47s-6.49-12.6-8.7-19.58a.5.5,0,0,1-.13-.24,4.06,4.06,0,0,0-.54-1.18c-.23-.44-.43-.89-.65-1.33a4.33,4.33,0,0,0-1.55-2l-.1,0c-.7.15-1,.61-.92,1.46a10.47,10.47,0,0,0,.67,2.51,88.73,88.73,0,0,1,3,9.27l.62,1.53a.5.5,0,0,1-.92.4c-.16-.35-.32-.69-.47-1a.45.45,0,0,1-.18-.28,1.74,1.74,0,0,0-.05-.22l-3.42-7.56c-.11-.24-2.5-2.9-2.78-3.51-.32-.08-.68-.16-.87.08a.66.66,0,0,0-.13.32.51.51,0,0,0,0,.13c2.31,7.28,7,12.67,7.07,20.48,0,.58-.55,4.29-.23,4.78,1.48,2.25,2.11,3.1,3.11,4.56a.58.58,0,0,1,.09.25c.27,2.94,0,5.39.82,7.38,2.47,6,5.37,11.83,8,17.4a.49.49,0,0,1,0,.48c-3.18,5-6.31,10-9.47,15a6.4,6.4,0,0,1-1,1.11c-4.93,4.67-9.34,9.95-16,12.48-2,.74-3.55,2.29-3.17,4.91a.51.51,0,0,0,.52.41,2.06,2.06,0,0,0,1.12-.18c2-1.47,3-2.77,5.51-1.66.44.19,2.85-.24,2.88-.65.42-4.44,4.35-4.88,7.19-6.59,1.8-1.08,4.05-2,5.06-3.7,2.75-4.49,6.63-7.39,11.24-9.74a.5.5,0,0,1,.69.24,32,32,0,0,0,2.64,5.57c3.33,4.8,6.87,9.46,10.42,14.1,2.23,2.91,3.92,6,3.85,9.73a12,12,0,0,1-1,3.52.5.5,0,0,0,.36.67c1.48.26,2.81-3,4.26-4.35C440.48,526.47,438.91,526.27,436.13,522.75Z" transform="translate(52.05)"/><path class="cls-2" d="M592.74,496.79l3.93-10c-1.2-.42-2.51-.81-3.78-1.32-3.23-1.29-4.16-3.21-3.16-6.49a13.75,13.75,0,0,1,5-7.3c.57-.42,2,0,2.85.35,1.86.82,2.89.93,3.31-1.62a37.3,37.3,0,0,1,2.26-6.92c2.1-5.6,2.93-11-.26-16.68-2.4-4.25.42-7.65,5.13-8.71,4.3-1,8.35-3.34,12.26-5.55.9-.51.94-2.86,1-4.39.08-1.17-.62-2.41-.51-3.57a3.18,3.18,0,0,1,1.5-2.2c.43-.23,1.62.39,2.1.95,1.76,2,3.3,4.21,5,6.25,1.47,1.75.34,2.76-.87,3.78l-12.06,10.11.17.86c2.1.39,4.23.66,6.28,1.2a48.63,48.63,0,0,1,8.39,2.61c4.16,1.95,5.22,5.56,3.23,9.68a12,12,0,0,1-2,3.37c-4.84,4.76-9.59,9.65-14.76,14-3.51,3-8,3.83-12.66,3.44-1.94-.16-3-.08-3.46,2.42s-2.27,4.9-3.35,7.39c-.93,2.15-1.59,4.41-2.52,6.56a13.77,13.77,0,0,1-1.77,2.46ZM611.22,453l-.72,10.15c4.32-.73,6.45-3.23,8-6.71Z" transform="translate(52.05)"/><path class="cls-2" d="M981.81,460.48l-.38-.1c-.63-.19-1.24-.44-1.86-.66s-1.4-.19-2.08-.23A7,7,0,0,0,975,460a12.13,12.13,0,0,1-3,1.36.93.93,0,0,1-.37,0,5.82,5.82,0,0,1-1.76.32l-.1,0c-1.76.4-3.64.31-5.39.75-4.43,1.11-8.84,2.35-13.23,3.63s-8.06.46-11.88-1.92c-9.92-6.17-20-12-30-18.06-1.08-.64-2.44-1.28-3-2.26-.91-.78-1.72-1.68-2.69-2.39-1.83-1.35-5.06-1.8-5.61-4.3l-.1-.12-.6-.17a3.81,3.81,0,0,0-1.49.78,3.07,3.07,0,0,0-.26.25c0,.08-.05.17-.07.26a5.11,5.11,0,0,0,0,1.83,7.06,7.06,0,0,0,.26,1.08,7.88,7.88,0,0,0,2.17,2c8.17,5.51,16.28,11.09,24.4,16.66a28.3,28.3,0,0,1,2.86,2.28c5.33,4.82,10.49,9.69,14.64,15.76a23.6,23.6,0,0,1,3.15,5.65,4.4,4.4,0,0,1,.77,1.9,1,1,0,0,1,0,.48l-.08.19a.94.94,0,0,1,.11.39c.15,2.17,1,4.3.78,6.5-.19,1.93-1.32,3.59-2.26,5.24a28.47,28.47,0,0,0-1.61,3.1c-.06,2,.73,3.91,2.38,6.3a7.81,7.81,0,0,1,1.18,4.49c-.25,4.76-.81,9.5-1.28,14.47h0v.1a.93.93,0,0,1-.91.91c-.4,0-.81,0-1.22.07l-.54,0-.25,0h0l-.1,0a7.6,7.6,0,0,0-.83.16l-.41.12-.16.06,0,0-.26.12-.12.08a1.62,1.62,0,0,1-.19.17.22.22,0,0,1-.05.08h0s0,.05,0,.08,0,0,0,.11a1,1,0,0,0,0,.17l.06.26c2.38,1.08,5.4,1.28,6.74.4a2.27,2.27,0,0,0,.92-1.42c1-6.92,1.83-13.85,2.75-20.78a3.16,3.16,0,0,1,.6-1.54c1.17-1.38,2.44-2.69,3.87-4.25,1.38,6.16,2.75,12.3,4.13,18.47l-2.23.45v0h0c0,.24-.05.47-.06.71a4.51,4.51,0,0,0,0,.52,6.56,6.56,0,0,0,2,.58c2,.28,3.14,0,3.49-1.15a29.85,29.85,0,0,1-1.91-10,60,60,0,0,1-1.23-7.39.93.93,0,0,1-.23-.59V500a2,2,0,0,1-.19-.61c.07-2,.11-4.06.3-6.08,0,0,0-.05,0-.08-.14-1.24-.2-2.49-.27-3.74a25.07,25.07,0,0,0-.72-5.4c-.43-.87-.87-1.75-1.33-2.62-1-1.9-2.52-4.7-1.49-6.86a3.52,3.52,0,0,1,2.43-2.27,14.73,14.73,0,0,0,4.15-1.79c4.23-3.27,9.22-4.65,14.22-6,2.05-.58,4.2-.87,6.18-1.64a9.32,9.32,0,0,0,2.17-1.33,2.3,2.3,0,0,1,0-.37,1.6,1.6,0,0,1,.05-.21C982,460.82,981.9,460.65,981.81,460.48Z" transform="translate(52.05)"/><path class="cls-2" d="M173.33,463.3l-.06,0a1.73,1.73,0,0,1-.31-.14h-.12a3.39,3.39,0,0,1-2.07.35l-.14-.06c-2.14,0-3.8,1.05-5.37,2.38-.75.64-1.49,1.29-2.28,1.86-1,1.37-2,2.78-3.2,4-2.48,2.7-5.1,5.28-7.67,7.91l-.75-.6,0-.1a1,1,0,0,1-.34-.32.9.9,0,0,1,.24-1.18,5.07,5.07,0,0,1,.84-1.77c.05-.24.1-.47.14-.71.54-3-1-5.05-3.89-5.33a4.74,4.74,0,0,0-5.33,4.58,5.19,5.19,0,0,1-6.46,5.24c-4.85-1-9.69-2.09-14.51-3.24a3.19,3.19,0,0,1-1.83-1.26,4.2,4.2,0,0,1-1.71-1.61,18.28,18.28,0,0,1-2-5.63c-.07-.27-.14-.54-.23-.8l-.09-.27,0-.06a3.37,3.37,0,0,0-.58-.67l0,0-.15-.07-.2-.08-.25-.08c-.52-.17-1-.3-1.56-.45a.84.84,0,0,1-.53-.41l0,0-.34-.24-.16-.12-.16-.13h0a5.74,5.74,0,0,0-.73-.48c-.11,0-.13,0-.09,0l-.12,0h-.08l-.1,0-.08,0-.07,0s0,0,0,0,0,0-.06,0a1.55,1.55,0,0,0-.15.14l0,.05-.08.13,0,.12c.46.95.95,1.9,1.33,2.89,1.61,4.08,4.07,8.08,4.53,12.3.74,6.77,4.1,11.58,8.87,15.75,3.12,2.73,5.49,5.63,5.47,10.05,0,1.48.69,2.95,1.07,4.43,1,4,2.93,8.06,2.95,12.09,0,8.07,3.81,15.23,4.58,23.22a5.52,5.52,0,0,0,2.1,1.18l6.79-.56a6,6,0,0,0,.85-.57,1,1,0,0,1,0-.58,2.17,2.17,0,0,0-.81-.44c-4.63-1-6.53-4.14-6.77-8.55-.5-9.42-.86-18.86-1.46-28.27-.25-4,1.41-6.21,4.76-8.21,2.4-1.43,5-3.79,5.87-6.3,3.39-9.58,9.94-16.95,16-24.68a10.11,10.11,0,0,1,2.85-2.17c1.22-.73,2.51-1.35,3.79-2l.06-.26a2.43,2.43,0,0,0,0-.27ZM136,490.15c-9.23-1.61-15-6.19-14.32-12.19,4.77,1.83,9.45,3.39,13.91,5.44C138.12,484.56,138.06,486.92,136,490.15Z" transform="translate(52.05)"/><path class="cls-2" d="M295,442.46l-.22-.43c-1.8.42-3.67.53-5.47,1-3.93,1-4.73-.93-6.58-3.24,0-3.6.77-12-.19-12.33-.32-.09-6.79,6-9.27,8.06a51.86,51.86,0,0,0-15.61-2,11,11,0,0,0-4.15.73c-3.81,1.64-4.26,4-3.55,9.82s1.47,12,.8,17.88a36.27,36.27,0,0,0,.66,14.09c.58,2.11,0,4.52.07,6.8a6.25,6.25,0,0,0,.55,3,54.93,54.93,0,0,0,4.34,5.76,2.35,2.35,0,0,0,1.94.78,2.3,2.3,0,0,0,1.18-1.78,13.27,13.27,0,0,0-.81-2.9c-.81-3.21-2-6.4-2.28-9.66-.79-10.81,1.94-21.06,6-31.49l15.74,5.28c.31,1.31.51,2.41.84,3.48,1,3.17,3.56,4.15,6.45,5,2.29.69,3.72.24,4.78-1.82,1.84-3.56,1.28-5.89-2.42-9.73Zm-6.78,2.79a.56.56,0,0,1,.24-.32l.32-.22a3,3,0,0,1,.45-.34,1.81,1.81,0,0,1,.63-.25h.23a3.78,3.78,0,0,1,.92-.29.37.37,0,0,1,.37.13.32.32,0,0,1,.08.21v.09l0,.09a1.48,1.48,0,0,1-.25.25h0a.31.31,0,0,1-.29.21s0,0,0,0a.22.22,0,0,1-.09.1.23.23,0,0,1-.12.06,1.31,1.31,0,0,0-.28.09l-.08,0a.34.34,0,0,1-.17.05h0a6.79,6.79,0,0,0-1.09.67.53.53,0,0,1-.41,0,.52.52,0,0,1-.32-.24A.54.54,0,0,1,288.19,445.25Zm-10.68-8.19c-.46-.2-.91-.39-1.37-.57C278.36,434.33,280.85,429.13,277.51,437.06Z" transform="translate(52.05)"/><path class="cls-2" d="M797.15,489.35a52.63,52.63,0,0,1-.07-5.48c-.19-4.15-1.13-8.4-.53-12.42a35.29,35.29,0,0,0-1.6-15.91c-3-9.62-4.7-19.36-3.49-29.43a.94.94,0,0,1-.28-.65l-.38-.11-.07,0h-.43l-.11,0c-1.67,2.41-3.35,4.82-5,7.28-.16.25.15,1,.47,1.34.13.13.24.25.35.38a2.21,2.21,0,0,1,.6.58,2.07,2.07,0,0,1,.33,1.18,8.11,8.11,0,0,1-.33,4.15,17.53,17.53,0,0,0,.54,10.16,27.11,27.11,0,0,1-.82,17.93,9.76,9.76,0,0,0,.46,8.68,12.93,12.93,0,0,1,1.44,7.48c-.82,4.51-2.6,8.86-4,13.44-.08,0-.81-3.08-1.23-4.69A1.87,1.87,0,0,0,781.9,492c-1.14-.47-2.92-1.11-1.51.8,5.67,7.67-1.41,5.89-3,7.36-.28,1-.67,1.94-1,2.92a9.5,9.5,0,0,0-.28,1.11,7.73,7.73,0,0,0,2,4.46,5.21,5.21,0,0,0,3.7,1.09c1.46-.28,2.76-1.41,4.28-2.27,0,3.81-.13,7,0,10.28.14,2.58-.3,4.36-2.86,4.46a.93.93,0,0,1-.69.33,14.74,14.74,0,0,1-1.63-.16c-.35.12-.71.25-1.07.34l.07.72.18.18.08.06,6.67.4v2.65a.77.77,0,0,1,.14.27.91.91,0,0,1-.63,1.12c-.56.09-1.11.22-1.67.3a6.88,6.88,0,0,1-1.81.06,1,1,0,0,1-.43.32l-.1,0h0l-.08,0c-.1,0-.18.12-.28.17h0l-.1.09c-.08.07-.14.17-.22.24l0,0c.05-.06.1-.08,0,0v0l-.09.13-.07.14h0s0,0,0,0c0,.18-.12.36-.15.54h0a11.68,11.68,0,0,0,4.3.2c1.42-.39,3.6-1.69,3.68-2.73.62-8,.76-16,1.19-24,.06-1.14.53-2.81,1.35-3.26C796.37,498,797.92,494.32,797.15,489.35Z" transform="translate(52.05)"/><path class="cls-3" d="M-11,535.54c13.29-14.33,28-53,28-53s20.55,47.28,49.91,53,36.7-34.39,36.7-34.39,11.74,45.85,36.69,43S196,482.53,196,482.53s19.08,61.87,41.1,61.74S266.5,513.4,266.5,513.4s24.95,33.86,48.44,30.87S353.11,494,353.11,494s17.61,52.21,41.1,50.46S442.65,504,442.65,504s20.55,35.82,45.51,30.09,27.89-51.58,27.89-51.58,41.1,55.88,71.93,50.15,33.76-33,33.76-33,47,45.85,76.33,38.69,42.57-37.26,42.57-37.26,67.53,37.26,82.21,30.09,17.61-34.38,17.61-34.38,13.21,34.38,32.3,32.95,25-47.28,25-47.28,20.55,48.71,38.17,48.71S974,502.59,974,502.59s7.34,27.58,33.77,10.92,41.1-31,41.1-31,0,41.55,20.55,43,27.89-43,27.89-43,3.5,33.31,18.63,31,7.79,55,7.79,55L-52,585.69Z" transform="translate(52.05)"/><path class="cls-4" d="M-4,550.54c13-14.33,27.3-53,27.3-53s20.05,47.28,48.71,53,35.82-34.39,35.82-34.39,11.46,45.85,35.82,43,54.44-61.61,54.44-61.61,18.63,61.87,40.12,61.74,28.66-30.87,28.66-30.87,24.35,33.86,47.28,30.87S351.4,509,351.4,509s17.19,52.21,40.12,50.46S438.8,519,438.8,519s20.06,35.82,44.42,30.09,27.22-51.58,27.22-51.58,40.12,55.88,70.2,50.15,33-33,33-33,45.85,45.85,74.5,38.69,41.55-37.26,41.55-37.26,65.91,37.26,80.24,30.09,17.19-34.38,17.19-34.38,12.9,34.38,31.52,32.95S883,497.53,883,497.53s20.06,48.71,37.25,48.71,37.25-28.65,37.25-28.65,7.17,27.58,33,10.92,40.12-31,40.12-31,0,41.55,20.06,43,27.22-43,27.22-43,3.41,33.31,18.18,31,7.61,55,7.61,55L-44,600.69Z" transform="translate(52.05)"/></svg>